<?xml version="1.0" encoding="UTF-8"?>
<!DOCTYPE svg PUBLIC "-//W3C//DTD SVG 1.1//EN" "http://www.w3.org/Graphics/SVG/1.1/DTD/svg11.dtd">
<svg xmlns="http://www.w3.org/2000/svg" version="1.1" width="1012px" height="742px" style="shape-rendering:geometricPrecision; text-rendering:geometricPrecision; image-rendering:optimizeQuality; fill-rule:evenodd; clip-rule:evenodd" xmlns:xlink="http://www.w3.org/1999/xlink">
<g><path style="opacity:1" fill="#009e65" d="M 261.5,-0.5 C 287.5,-0.5 313.5,-0.5 339.5,-0.5C 340.058,0.789915 341.058,1.62325 342.5,2C 348.231,2.70248 353.898,3.70248 359.5,5C 384.681,11.6553 410.015,18.322 435.5,25C 472.605,31.1927 509.938,32.5261 547.5,29C 556.88,27.8693 566.214,26.536 575.5,25C 598.486,19.6275 621.153,13.6275 643.5,7C 651.815,5.22536 660.149,3.55869 668.5,2C 669.942,1.62325 670.942,0.789915 671.5,-0.5C 697.167,-0.5 722.833,-0.5 748.5,-0.5C 799.305,9.97346 841.471,35.6401 875,76.5C 901.93,110.232 923.263,147.232 939,187.5C 974.64,281.875 997.973,379.875 1009,481.5C 1009.39,484.104 1010.22,486.438 1011.5,488.5C 1011.5,527.833 1011.5,567.167 1011.5,606.5C 1010.21,607.058 1009.38,608.058 1009,609.5C 1007.56,623.896 1004.56,637.896 1000,651.5C 987.606,687.227 964.773,714.06 931.5,732C 924.8,735.095 917.8,737.429 910.5,739C 909.058,739.377 908.058,740.21 907.5,741.5C 888.833,741.5 870.167,741.5 851.5,741.5C 814.605,729.242 782.772,708.575 756,679.5C 742.957,665.726 730.624,651.393 719,636.5C 696.513,611.86 669.347,595.36 637.5,587C 623.59,583.752 609.59,581.086 595.5,579C 530.372,572.502 465.372,573.169 400.5,581C 380.221,584.646 360.554,590.312 341.5,598C 326.01,605.772 311.676,615.439 298.5,627C 284.049,643.407 269.715,659.907 255.5,676.5C 232.402,702.469 205.069,722.303 173.5,736C 169.5,737 165.5,738 161.5,739C 160.058,739.377 159.058,740.21 158.5,741.5C 139.833,741.5 121.167,741.5 102.5,741.5C 67.8933,731.039 41.7266,709.706 24,677.5C 12.0689,654.358 4.73552,629.691 2,603.5C 1.24316,601.685 0.409824,600.019 -0.5,598.5C -0.5,557.5 -0.5,516.5 -0.5,475.5C 0.600473,473.723 1.43381,471.723 2,469.5C 4.51531,442.272 8.18198,415.272 13,388.5C 22.7944,339.917 34.7944,291.917 49,244.5C 54.7688,230.419 59.7688,216.086 64,201.5C 79.1685,161.457 98.8351,124.123 123,89.5C 150.104,52.6796 184.604,25.8463 226.5,9C 236.511,5.75123 246.844,3.4179 257.5,2C 259.066,1.3918 260.4,0.558465 261.5,-0.5 Z M 290.5,68.5 C 302.925,68.1787 315.258,69.012 327.5,71C 352.526,77.0206 377.526,83.6873 402.5,91C 449.141,101.123 496.475,104.456 544.5,101C 555.544,99.8733 566.544,98.54 577.5,97C 587.808,94.7546 598.141,92.7546 608.5,91C 633.338,83.586 658.338,76.9193 683.5,71C 741.822,61.8731 788.989,80.7065 825,127.5C 829.008,133.173 833.008,138.839 837,144.5C 861.418,185.585 880.418,228.918 894,274.5C 899.544,295.228 905.21,315.895 911,336.5C 915.09,356.228 919.424,375.894 924,395.5C 934.403,446.811 940.57,498.811 942.5,551.5C 942.066,572.799 939.899,593.799 936,614.5C 932.748,629.586 926.415,643.252 917,655.5C 896.723,674.742 874.223,677.575 849.5,664C 827.743,650.332 808.576,633.498 792,613.5C 764.457,574.846 728.957,546.346 685.5,528C 661.173,518.908 636.173,512.575 610.5,509C 540.5,501.667 470.5,501.667 400.5,509C 361.085,513.94 324.085,525.94 289.5,545C 260.172,563.659 235.338,587.159 215,615.5C 199.975,633.533 182.809,649.033 163.5,662C 153.183,667.566 142.183,671.066 130.5,672.5C 108.875,671.044 93.7078,660.378 85,640.5C 74.8927,614.217 69.5594,586.884 69,558.5C 68.7945,523.347 70.7945,488.347 75,453.5C 85.9355,383.906 101.936,315.573 123,248.5C 133.16,220.011 145.16,192.344 159,165.5C 173.305,138.582 192.139,115.249 215.5,95.5C 229.643,84.4512 245.31,76.9512 262.5,73C 271.954,71.5259 281.287,70.0259 290.5,68.5 Z"/></g>
<g><path style="opacity:1" fill="#009e65" d="M 293.5,166.5 C 315.779,163.41 330.612,172.41 338,193.5C 338.823,217.876 338.657,242.209 337.5,266.5C 362.493,267.333 387.493,267.833 412.5,268C 429.743,273.554 438.743,285.22 439.5,303C 438.743,320.78 429.743,332.446 412.5,338C 387.493,338.167 362.493,338.667 337.5,339.5C 338.157,351.79 338.491,364.123 338.5,376.5C 338.639,389.566 338.139,402.566 337,415.5C 328.6,434.425 314.1,442.258 293.5,439C 281.75,434.917 273.583,427.083 269,415.5C 267.861,402.566 267.361,389.566 267.5,376.5C 267.509,364.123 267.843,351.79 268.5,339.5C 243.507,338.667 218.507,338.167 193.5,338C 176.257,332.446 167.257,320.78 166.5,303C 167.257,285.22 176.257,273.554 193.5,268C 218.507,267.833 243.507,267.333 268.5,266.5C 267.343,242.209 267.177,217.876 268,193.5C 272.279,180.391 280.779,171.391 293.5,166.5 Z"/></g>
<g><path style="opacity:1" fill="#009e65" d="M 663.5,166.5 C 689.765,163.295 707.598,173.961 717,198.5C 721.492,225.61 710.992,243.776 685.5,253C 658.85,256.949 640.684,246.449 631,221.5C 627.511,194.497 638.344,176.164 663.5,166.5 Z"/></g>
<g><path style="opacity:1" fill="#009e65" d="M 570.5,259.5 C 596.313,256.16 614.146,266.493 624,290.5C 628.86,317.967 618.36,336.467 592.5,346C 566.628,349.771 548.794,339.604 539,315.5C 534.099,288.108 544.599,269.441 570.5,259.5 Z"/></g>
<g><path style="opacity:1" fill="#009e65" d="M 755.5,259.5 C 782.134,256.042 800.301,266.708 810,291.5C 814.243,318.244 803.743,336.41 778.5,346C 751.886,349.975 733.719,339.475 724,314.5C 719.916,294.279 726.083,278.112 742.5,266C 747.219,264.27 751.552,262.104 755.5,259.5 Z"/></g>
<g><path style="opacity:1" fill="#009e65" d="M 662.5,352.5 C 688.853,348.727 707.02,359.06 717,383.5C 721.704,410.763 711.204,429.263 685.5,439C 659.299,442.476 641.132,431.976 631,407.5C 627.066,380.733 637.566,362.399 662.5,352.5 Z"/></g>
</svg>
